<?xml version="1.0" encoding="UTF-8" standalone="no"?>
<!-- Created with Inkscape (http://www.inkscape.org/) -->

<svg
   width="2048"
   height="512"
   viewBox="0 0 541.86664 135.46667"
   version="1.1"
   id="svg1"
   xmlns:xlink="http://www.w3.org/1999/xlink"
   xmlns="http://www.w3.org/2000/svg"
   xmlns:svg="http://www.w3.org/2000/svg">
  <defs
     id="defs1">
    <linearGradient
       id="linearGradient9">
      <stop
         style="stop-color:#d503ff;stop-opacity:1;"
         offset="0"
         id="stop9" />
      <stop
         style="stop-color:#6600cc;stop-opacity:1;"
         offset="1"
         id="stop10" />
    </linearGradient>
    <linearGradient
       id="linearGradient7">
      <stop
         style="stop-color:#ff5500;stop-opacity:1;"
         offset="0"
         id="stop7" />
      <stop
         style="stop-color:#cc0000;stop-opacity:1;"
         offset="1"
         id="stop8" />
    </linearGradient>
    <linearGradient
       xlink:href="#linearGradient7"
       id="linearGradient8"
       x1="365.64252"
       y1="1.7452424"
       x2="17.069527"
       y2="120.78093"
       gradientUnits="userSpaceOnUse" />
    <linearGradient
       xlink:href="#linearGradient9"
       id="linearGradient10"
       x1="365.74991"
       y1="1.6382698"
       x2="13.775868"
       y2="120.77459"
       gradientUnits="userSpaceOnUse" />
  </defs>
  <g
     id="layer1"
     style="display:none">
    <text
       xml:space="preserve"
       style="font-size:67.7333px;writing-mode:lr-tb;direction:ltr;display:inline;fill:#000000;stroke-width:0.264583"
       x="9.3596668"
       y="82.401161"
       id="text1"><tspan
         id="tspan1"
         style="font-style:italic;font-variant:normal;font-weight:bold;font-stretch:normal;font-size:67.7333px;font-family:'Roboto Mono';-inkscape-font-specification:'Roboto Mono Bold';stroke-width:0.264583"
         x="9.3596668"
         y="82.401161"><tspan
   style="font-style:normal"
   id="tspan2">&gt;_</tspan>a</tspan></text>
  </g>
  <g
     id="g4">
    <g
       id="g10"
       transform="matrix(1.0860215,0,0,1.1332325,64.459344,-0.92875199)">
      <path
         style="font-weight:bold;font-size:67.7333px;font-family:'Roboto Mono';-inkscape-font-specification:'Roboto Mono Bold';fill:url(#linearGradient8);stroke-width:0.264583"
         d="M 14.684404,77.671736 44.450014,65.533982 V 58.026434 L 14.684404,45.921752 v 8.896611 l 18.983844,6.250778 1.984374,0.661458 -2.017447,0.661458 -18.950771,6.349996 z M 85.063536,89.57798 V 82.401161 H 54.901051 v 7.176819 z"
         id="text4"
         aria-label="&gt;_" />
      <path
         style="font-style:italic;font-weight:bold;font-size:67.7333px;font-family:'Roboto Mono';-inkscape-font-specification:'Roboto Mono Bold';fill:url(#linearGradient10);stroke-width:0.264583"
         d="m 113.80392,82.401161 h 8.89661 l 0.0331,-0.595312 q -0.69453,-1.918228 -0.56224,-3.935675 0.16536,-2.05052 0.46302,-4.001821 l 2.48046,-15.378899 q 0.29766,-3.075779 -0.66145,-5.390882 -0.92604,-2.315103 -2.74505,-3.902602 -1.85209,-1.554427 -4.36563,-2.381249 -2.51354,-0.826823 -5.32473,-0.892969 -2.67891,-0.03307 -5.42396,0.628386 -2.71198,0.628385 -4.96093,2.017446 -2.248961,1.422135 -3.737242,3.604947 -1.48828,2.149738 -1.686718,5.126299 l 8.96276,-0.06615 q 0.23151,-1.091405 0.69453,-1.918228 0.49609,-0.859895 1.22369,-1.389062 0.76068,-0.595312 1.75287,-0.859895 1.02526,-0.297656 2.21588,-0.264583 1.28985,0.03307 2.31511,0.429947 1.02526,0.363802 1.71979,1.058333 0.66145,0.727604 0.92604,1.752864 0.29765,1.02526 0.0992,2.315103 l -0.42995,2.215884 -5.15937,-0.06615 q -2.01745,0 -4.10104,0.231511 -2.05052,0.23151 -4.00182,0.793749 -1.95131,0.56224 -3.671096,1.488281 -1.719791,0.892968 -3.042707,2.248957 -1.322916,1.355989 -2.149739,3.174998 -0.793749,1.81901 -0.892968,4.200259 -0.09922,2.381248 0.727604,4.299477 0.826822,1.918228 2.348176,3.241144 1.48828,1.355989 3.505727,2.116665 2.050523,0.727604 4.299473,0.760677 1.91823,0.03307 3.63802,-0.429948 1.71979,-0.429947 3.24115,-1.289843 0.79375,-0.46302 1.55442,-1.02526 0.76068,-0.595312 1.48828,-1.25677 -0.0331,0.859896 0,1.686718 0.0661,0.79375 0.33073,1.653645 z m -7.90442,-6.416142 q -0.95911,0 -1.78594,-0.264584 -0.79375,-0.264583 -1.35599,-0.760676 -0.56223,-0.496094 -0.82682,-1.256771 -0.26458,-0.760676 -0.13229,-1.785936 0.13229,-0.892968 0.42995,-1.620572 0.29765,-0.727604 0.7276,-1.289843 0.52917,-0.694531 1.25677,-1.157552 0.72761,-0.496093 1.48828,-0.892968 1.19063,-0.496094 2.54662,-0.727604 1.35598,-0.23151 2.6789,-0.23151 l 4.06797,0.03307 -1.12448,6.184632 q -0.62839,0.760677 -1.38906,1.389062 -0.72761,0.628385 -1.52136,1.091405 -1.12447,0.661458 -2.41432,0.992187 -1.28984,0.330729 -2.64583,0.297657 z M 162.22265,45.88868 q -1.9513,0 -3.70417,0.496093 -1.71979,0.463021 -3.27422,1.322916 -1.55442,0.892968 -2.91041,2.116666 -1.35599,1.223697 -2.54661,2.678905 l 0.23151,-1.455208 0.69453,-4.431769 h -8.33437 l -6.21771,35.784878 h 8.96276 l 3.73724,-21.530458 q 0.85989,-1.355989 1.85208,-2.381249 1.02526,-1.058332 2.21588,-1.752863 1.42214,-0.859896 3.07578,-1.289843 1.65365,-0.429948 3.57187,-0.396875 1.78594,0.03307 3.50573,0.297656 1.71979,0.23151 3.43958,0.661458 l 2.4474,-9.161193 q -1.68672,-0.429948 -3.37344,-0.661458 -1.65364,-0.264584 -3.37343,-0.297656 z m 25.4992,29.864828 q -1.19062,-0.03307 -2.08359,-0.396875 -0.8599,-0.363801 -1.45521,-0.959114 -0.85989,-0.859895 -1.25677,-2.083592 -0.39687,-1.256771 -0.56224,-2.579687 -0.0992,-1.157551 -0.0661,-2.348175 0.0661,-1.223698 0.16536,-2.282031 l 0.13229,-0.992187 q 0.19844,-1.587499 0.62839,-3.208071 0.46302,-1.653645 1.22369,-3.07578 0.39688,-0.793749 1.02526,-1.587499 0.62839,-0.793749 1.35599,-1.389062 0.92604,-0.727603 2.11667,-1.124478 1.19062,-0.396875 2.6789,-0.363802 1.42214,0.06615 2.48047,0.595312 1.05833,0.496094 1.75286,1.355989 0.69454,0.859895 0.99219,2.05052 0.29766,1.157551 0.19844,2.480467 l 8.43359,0.03307 q 0.16536,-3.075779 -0.72761,-5.58932 -0.85989,-2.546613 -2.57968,-4.398696 -1.75287,-1.819009 -4.23333,-2.844269 -2.48047,-1.02526 -5.55625,-1.091406 -3.80338,-0.09922 -6.97838,1.190625 -3.14193,1.289843 -5.4901,3.671092 -2.64584,2.711977 -4.23333,6.085413 -1.5875,3.340363 -2.05052,7.209892 l -0.0992,1.02526 q -0.19844,1.885156 -0.0992,3.737238 0.0992,1.81901 0.49609,3.472655 0.59531,2.579686 1.9513,4.762497 1.38906,2.149739 3.43958,3.638019 1.52136,1.058333 3.50573,1.686718 2.01745,0.628385 4.46484,0.661458 2.87735,0.06615 5.65547,-0.79375 2.8112,-0.892968 5.09323,-2.579686 2.24895,-1.686718 3.70416,-4.101039 1.45521,-2.447395 1.62057,-5.490102 l -8.40051,0.06615 q -0.19844,1.322916 -0.89297,2.381249 -0.66146,1.058333 -1.62057,1.752864 -0.99219,0.727603 -2.21589,1.091405 -1.19062,0.363802 -2.51354,0.330729 z m 37.24008,-24.143217 3.80339,-20.009104 h -8.96276 l -8.83046,50.799974 h 8.96275 l 4.56406,-25.863008 q 0.72761,-0.727603 1.52136,-1.289843 0.79375,-0.595312 1.65364,-0.992187 0.92604,-0.396875 1.91823,-0.595312 1.02526,-0.23151 2.14974,-0.198437 1.62057,0.06615 2.6789,0.628385 1.05834,0.562239 1.65365,1.521353 0.59531,0.992187 0.7276,2.28203 0.16537,1.25677 0,2.745051 l -3.67109,21.761968 h 8.99583 l 3.60495,-21.662749 q 0.29765,-2.811197 -0.0992,-5.457029 -0.3638,-2.645832 -1.55443,-4.729425 -1.2237,-2.050519 -3.37344,-3.30729 -2.11666,-1.25677 -5.29166,-1.289843 -2.11666,-0.03307 -3.96875,0.661458 -1.81901,0.661458 -3.34036,1.81901 -0.8599,0.661458 -1.65365,1.48828 -0.79374,0.79375 -1.48828,1.686718 z m 34.36275,-4.994008 -1.32292,7.507549 h 9.8888 l -3.60495,20.802854 h -9.8888 l -1.28984,7.474475 h 28.34348 l 1.32291,-7.474475 h -9.42577 l 4.92786,-28.310403 z m 10.81483,-8.995828 q 0,2.182811 1.48828,3.505727 1.52136,1.322916 3.63802,1.25677 2.14974,0 3.6711,-1.389062 1.52135,-1.422134 1.52135,-3.704164 0,-2.182812 -1.52135,-3.505728 -1.48829,-1.322916 -3.60495,-1.25677 -2.24896,0 -3.73724,1.455208 -1.45521,1.455207 -1.45521,3.638019 z m 31.88229,44.780706 h 8.40051 l 18.78541,-35.784878 h -9.62421 l -11.41016,24.903894 -0.92604,2.678905 -0.0661,-2.414322 -3.93568,-25.20155 -8.89661,0.03307 z m 45.54137,0.661458 q 4.2664,0.03307 8.3013,-1.554426 4.06796,-1.587499 6.44921,-4.894789 l -4.06796,-4.994008 q -1.91823,1.984374 -4.43177,3.075779 -2.48047,1.058333 -5.29167,0.959115 -1.78593,-0.03307 -3.175,-0.661458 -1.38906,-0.661458 -2.3151,-1.752864 -0.95911,-1.091406 -1.45521,-2.546613 -0.49609,-1.488281 -0.42994,-3.208072 h 23.38254 l 0.59531,-3.902602 q 0.42995,-3.472654 -0.19844,-6.61458 -0.59531,-3.141925 -2.24896,-5.58932 -1.68671,-2.414322 -4.39869,-3.869529 -2.71198,-1.455208 -6.44922,-1.554427 -2.6789,-0.06614 -5.09322,0.628385 -2.41432,0.661458 -4.46484,1.885156 -1.62058,0.992187 -3.04271,2.348176 -1.42214,1.322916 -2.61276,2.844269 -1.68672,2.315103 -2.77812,5.093227 -1.05834,2.778123 -1.38907,5.754684 l -0.13229,1.355989 q -0.33073,3.638019 0.62839,6.746872 0.95911,3.108852 3.00963,5.390882 2.01745,2.315103 4.96094,3.671092 2.97656,1.355989 6.64765,1.389062 z m 3.60495,-29.699464 q 1.48828,0.06615 2.61275,0.628385 1.15756,0.529166 1.91823,1.455208 0.72761,0.926041 1.02526,2.182811 0.29766,1.25677 0.0661,2.711978 l -0.16537,0.826822 h -14.58515 q 0.62839,-1.455207 1.45521,-2.877342 0.82683,-1.422135 1.9513,-2.546613 1.09141,-1.124479 2.51354,-1.785937 1.42214,-0.661458 3.20808,-0.595312 z"
         id="text6"
         aria-label="archive" />
    </g>
    <path
       d="m 182.97379,107.4761 h 2.34192 q 0.58098,0 1.09009,-0.14375 0.51511,-0.14375 0.94036,-0.41328 0.36537,-0.2276 0.67083,-0.56302 0.30547,-0.3414 0.53307,-0.7427 0.23959,-0.44922 0.37136,-0.98828 0.13177,-0.53906 0.13177,-1.144 v -0.71875 q 0,-0.6289 -0.14375,-1.18593 -0.13776,-0.55703 -0.39531,-1.01822 -0.22162,-0.37735 -0.5211,-0.694792 -0.29348,-0.323435 -0.67082,-0.545049 -0.43125,-0.26953 -0.95833,-0.413279 -0.52708,-0.149739 -1.13203,-0.149739 h -2.25806 z m 1.69504,-7.35517 h 0.56302 q 0.30547,0 0.56302,0.0719 0.26354,0.0659 0.47916,0.19167 0.28151,0.16771 0.49115,0.43125 0.21562,0.26354 0.34739,0.59895 0.10781,0.28151 0.16172,0.62292 0.0599,0.33541 0.0599,0.71275 v 0.73073 q 0,0.4013 -0.0599,0.74869 -0.0539,0.34141 -0.16172,0.62291 -0.13177,0.32344 -0.31745,0.56901 -0.17968,0.23958 -0.40728,0.39531 -0.22162,0.14974 -0.49115,0.2276 -0.26953,0.0779 -0.58098,0.0779 h -0.64688 z m 5.53435,4.05492 v 0.12579 q 0,0.71275 0.20364,1.3177 0.20365,0.59895 0.59896,1.04218 0.38932,0.44322 0.95833,0.69479 0.57499,0.24557 1.30572,0.24557 0.72473,0 1.29374,-0.24557 0.56901,-0.25157 0.95833,-0.69479 0.38932,-0.44323 0.59297,-1.04218 0.20364,-0.60495 0.20364,-1.3177 v -0.12579 q 0,-0.70676 -0.20364,-1.30572 -0.20365,-0.60494 -0.59297,-1.04817 -0.39531,-0.44323 -0.96432,-0.69479 -0.569,-0.25156 -1.29973,-0.25156 -0.73073,0 -1.29973,0.25156 -0.56302,0.25156 -0.95234,0.69479 -0.39531,0.44323 -0.59896,1.04817 -0.20364,0.59896 -0.20364,1.30572 z m 1.66509,0.12579 v -0.12579 q 0,-0.39531 0.0779,-0.74869 0.0779,-0.35338 0.24557,-0.62291 0.16771,-0.26953 0.43125,-0.42526 0.26354,-0.15573 0.63489,-0.15573 0.37734,0 0.64088,0.15573 0.26354,0.15573 0.43125,0.42526 0.16172,0.26953 0.23958,0.62291 0.0779,0.35338 0.0779,0.74869 v 0.12579 q 0,0.40728 -0.0779,0.76666 -0.0779,0.35338 -0.23958,0.61692 -0.16771,0.26953 -0.43125,0.42526 -0.26354,0.15573 -0.6289,0.15573 -0.37734,0 -0.64687,-0.15573 -0.26354,-0.15573 -0.43125,-0.42526 -0.16771,-0.26354 -0.24557,-0.61692 -0.0779,-0.35938 -0.0779,-0.76666 z m 6.40283,3.17446 h 1.46145 l 0.6888,-3.46196 0.13177,-0.65885 0.13776,0.65885 0.71276,3.46196 h 1.46145 l 1.16197,-6.4807 h -1.52733 l -0.47917,3.82134 -0.0838,0.6289 -0.1138,-0.61692 -0.70078,-3.83332 h -1.11406 l -0.70077,3.85128 -0.11381,0.61693 -0.0779,-0.61693 -0.48515,-3.85128 h -1.52135 z m 6.882,0 h 1.67108 v -4.60597 q 0.0839,-0.13177 0.18568,-0.23958 0.10182,-0.10781 0.2276,-0.18568 0.15573,-0.10781 0.35338,-0.16171 0.20365,-0.0539 0.44323,-0.0539 0.2875,0 0.5151,0.0599 0.22761,0.0539 0.38932,0.19765 0.16172,0.14375 0.24558,0.39531 0.0898,0.24557 0.0898,0.6289 v 3.96509 h 1.66509 v -3.98904 q 0,-0.70677 -0.1677,-1.19791 -0.16172,-0.49714 -0.45521,-0.81458 -0.29948,-0.31146 -0.70677,-0.45521 -0.40729,-0.14375 -0.89843,-0.14375 -0.38333,0 -0.72474,0.10781 -0.3414,0.10782 -0.6289,0.31146 -0.16771,0.11979 -0.31744,0.26953 -0.14974,0.14974 -0.27552,0.32943 l -0.10183,-0.89844 h -1.50936 z m 7.70855,-9.199953 v 1.359628 h 1.94061 v 6.486685 h -1.94061 v 1.35364 h 5.48044 v -1.35364 h -1.85676 v -7.846313 z m 6.78616,5.899703 v 0.12579 q 0,0.71275 0.20365,1.3177 0.20364,0.59895 0.59895,1.04218 0.38932,0.44322 0.95833,0.69479 0.575,0.24557 1.30572,0.24557 0.72474,0 1.29374,-0.24557 0.56901,-0.25157 0.95833,-0.69479 0.38932,-0.44323 0.59297,-1.04218 0.20364,-0.60495 0.20364,-1.3177 v -0.12579 q 0,-0.70676 -0.20364,-1.30572 -0.20365,-0.60494 -0.59297,-1.04817 -0.39531,-0.44323 -0.96432,-0.69479 -0.569,-0.25156 -1.29973,-0.25156 -0.73072,0 -1.29973,0.25156 -0.56302,0.25156 -0.95234,0.69479 -0.39531,0.44323 -0.59895,1.04817 -0.20365,0.59896 -0.20365,1.30572 z m 1.6651,0.12579 v -0.12579 q 0,-0.39531 0.0779,-0.74869 0.0779,-0.35338 0.24557,-0.62291 0.16771,-0.26953 0.43125,-0.42526 0.26354,-0.15573 0.63489,-0.15573 0.37734,0 0.64088,0.15573 0.26354,0.15573 0.43125,0.42526 0.16172,0.26953 0.23958,0.62291 0.0779,0.35338 0.0779,0.74869 v 0.12579 q 0,0.40728 -0.0779,0.76666 -0.0779,0.35338 -0.23958,0.61692 -0.16771,0.26953 -0.43125,0.42526 -0.26354,0.15573 -0.6289,0.15573 -0.37734,0 -0.64687,-0.15573 -0.26354,-0.15573 -0.43125,-0.42526 -0.16771,-0.26354 -0.24557,-0.61692 -0.0779,-0.35938 -0.0779,-0.76666 z m 9.9726,3.17446 h 1.68905 v -0.10183 q -0.12578,-0.24557 -0.19167,-0.58697 -0.0659,-0.34141 -0.0659,-0.8625 v -2.77915 q 0,-0.56302 -0.20963,-0.98827 -0.20964,-0.43125 -0.58099,-0.71276 -0.37135,-0.28151 -0.88047,-0.42526 -0.50312,-0.14375 -1.09009,-0.14375 -0.65286,0 -1.16198,0.16771 -0.50312,0.16172 -0.85051,0.44323 -0.35339,0.28151 -0.53906,0.65286 -0.17969,0.37135 -0.17969,0.78463 h 1.6651 q 0,-0.1737 0.0479,-0.31745 0.0539,-0.14375 0.16172,-0.24557 0.11979,-0.1138 0.31146,-0.1737 0.19166,-0.0659 0.4552,-0.0659 0.29948,0 0.52109,0.0779 0.22761,0.0719 0.37735,0.20964 0.14375,0.13177 0.21562,0.31744 0.0719,0.17969 0.0719,0.40729 v 0.38333 h -0.92838 q -0.71874,0 -1.27577,0.13177 -0.55104,0.12578 -0.92838,0.37136 -0.41927,0.26953 -0.6289,0.68879 -0.20964,0.41328 -0.20964,0.95234 0,0.41927 0.16771,0.77864 0.16771,0.35339 0.46718,0.61094 0.29948,0.25755 0.71276,0.4013 0.41927,0.14375 0.9164,0.14375 0.30547,0 0.56901,-0.0599 0.26354,-0.0539 0.48515,-0.15573 0.21563,-0.0958 0.39531,-0.2276 0.17969,-0.13177 0.31745,-0.28151 0.03,0.1737 0.0719,0.32943 0.0419,0.15573 0.10183,0.27552 z m -1.58723,-1.16797 q -0.2336,0 -0.41328,-0.0539 -0.1737,-0.0599 -0.29349,-0.15573 -0.11979,-0.10182 -0.18568,-0.24557 -0.0599,-0.14974 -0.0599,-0.32344 0,-0.22161 0.0839,-0.40729 0.0838,-0.19166 0.25755,-0.32942 0.1737,-0.13177 0.44922,-0.20365 0.27552,-0.0779 0.66484,-0.0779 h 0.85051 v 1.11406 q -0.0719,0.12578 -0.19765,0.25156 -0.12578,0.11979 -0.29948,0.21562 -0.1737,0.0958 -0.38932,0.15573 -0.21562,0.0599 -0.46718,0.0599 z m 4.72575,-2.1203 v 0.12578 q 0,0.70677 0.1737,1.31172 0.1737,0.59895 0.50312,1.03619 0.32344,0.43724 0.79062,0.6888 0.47318,0.24557 1.06614,0.24557 0.54505,0 0.95833,-0.20964 0.41328,-0.20963 0.71875,-0.58697 l 0.0838,0.67682 h 1.50338 v -9.199953 h -1.67109 v 3.300243 q -0.29947,-0.33542 -0.68879,-0.5151 -0.38334,-0.18568 -0.89245,-0.18568 -0.60494,0 -1.07812,0.23958 -0.46718,0.23959 -0.79661,0.67682 -0.32942,0.43724 -0.50312,1.04817 -0.16771,0.61094 -0.16771,1.34765 z m 1.6651,0.12578 v -0.12578 q 0,-0.40729 0.0719,-0.76067 0.0719,-0.35937 0.22761,-0.6289 0.15572,-0.26354 0.4013,-0.41328 0.25156,-0.15573 0.60494,-0.15573 0.42526,0 0.70677,0.18568 0.28151,0.17968 0.44921,0.50911 v 2.62342 q -0.1677,0.32344 -0.4552,0.50911 -0.28151,0.18568 -0.71276,0.18568 -0.35338,0 -0.59895,-0.14974 -0.24557,-0.14974 -0.4013,-0.41328 -0.15573,-0.25755 -0.22761,-0.60494 -0.0659,-0.35339 -0.0659,-0.76068 z m 15.34523,-1.03619 q 0,0.37734 0.25156,0.63489 0.25755,0.25756 0.69478,0.25756 0.42526,0 0.68281,-0.25157 0.26354,-0.25156 0.26354,-0.64088 0,-0.38932 -0.26354,-0.64088 -0.25755,-0.25755 -0.68281,-0.25755 -0.43723,0 -0.69478,0.26354 -0.25156,0.25755 -0.25156,0.63489 z m 17.07621,1.92265 q 0,0.23359 -0.0958,0.43125 -0.0958,0.19166 -0.27552,0.32942 -0.17969,0.13776 -0.44323,0.21562 -0.25755,0.0779 -0.59297,0.0779 -0.37734,0 -0.69478,-0.0839 -0.31146,-0.0839 -0.53307,-0.26355 -0.22761,-0.17968 -0.35339,-0.46119 -0.12578,-0.28151 -0.13776,-0.67682 h -1.65311 q 0,0.67682 0.25755,1.17994 0.26354,0.50312 0.71276,0.87448 0.47317,0.37734 1.10806,0.57499 0.64088,0.19167 1.29374,0.19167 0.66484,0 1.22786,-0.15573 0.56302,-0.16172 0.97031,-0.47317 0.40729,-0.30547 0.63489,-0.7487 0.23359,-0.44921 0.23359,-1.02421 0,-0.66484 -0.30546,-1.17395 -0.30547,-0.50911 -0.82057,-0.89245 -0.34141,-0.23359 -0.74869,-0.41328 -0.40729,-0.17968 -0.85651,-0.30546 -0.41927,-0.1138 -0.75468,-0.24557 -0.32943,-0.13177 -0.56302,-0.29349 -0.23359,-0.15573 -0.35937,-0.35339 -0.1198,-0.19765 -0.1198,-0.44322 0,-0.23359 0.0899,-0.43125 0.0958,-0.20364 0.27552,-0.35338 0.17968,-0.14375 0.43723,-0.22162 0.26354,-0.08385 0.59896,-0.08385 0.36536,0 0.63489,0.10182 0.27552,0.0958 0.4612,0.26953 0.17968,0.17969 0.26953,0.42526 0.0958,0.24557 0.10781,0.53906 h 1.64114 q 0,-0.58698 -0.22761,-1.07812 -0.2276,-0.491143 -0.63489,-0.850516 -0.40729,-0.353383 -0.9763,-0.551038 -0.56301,-0.197656 -1.24582,-0.197656 -0.65885,0 -1.22187,0.173697 -0.56302,0.167708 -0.9763,0.485154 -0.41328,0.317446 -0.64687,0.766659 -0.23359,0.44922 -0.23359,1.00026 0,0.47916 0.1737,0.88645 0.17968,0.40729 0.52708,0.74271 0.34739,0.33541 0.89244,0.61692 0.55104,0.28151 1.27577,0.47916 0.46719,0.12578 0.77864,0.27552 0.31745,0.14375 0.51511,0.31745 0.19166,0.17969 0.26953,0.38333 0.0838,0.20365 0.0838,0.43724 z m 6.03746,2.39582 q 0.94036,0 1.62916,-0.36536 0.6888,-0.36537 1.00624,-0.81458 l -0.83254,-0.89844 q -0.2875,0.37136 -0.7487,0.55703 -0.46119,0.18568 -0.95234,0.18568 -0.34739,0 -0.64088,-0.10781 -0.29349,-0.10782 -0.52109,-0.30547 -0.22161,-0.19167 -0.35338,-0.42526 -0.13177,-0.23958 -0.21563,-0.6289 v -0.018 h 4.39633 v -0.70677 q 0,-0.71275 -0.19765,-1.29973 -0.19766,-0.59297 -0.575,-1.01223 -0.38333,-0.41927 -0.93437,-0.64688 -0.54505,-0.23359 -1.24582,-0.23359 -0.67682,0 -1.25182,0.24557 -0.575,0.24558 -0.99427,0.6888 -0.41926,0.44323 -0.65286,1.06015 -0.23359,0.61094 -0.23359,1.35364 v 0.23958 q 0,0.65286 0.23359,1.22786 0.23958,0.56901 0.67682,0.98828 0.43724,0.42525 1.04817,0.67083 0.61094,0.24557 1.35963,0.24557 z m -0.19765,-5.37263 q 0.31744,0 0.55702,0.10182 0.24558,0.0958 0.41328,0.26354 0.16771,0.1737 0.26354,0.40729 0.0958,0.2336 0.0958,0.49714 v 0.13177 h -2.73124 q 0.0599,-0.31745 0.17969,-0.575 0.11979,-0.25755 0.29948,-0.44323 0.17369,-0.18567 0.40728,-0.28151 0.2336,-0.10182 0.51511,-0.10182 z m 8.46323,5.25284 h 1.68906 v -0.10183 q -0.12578,-0.24557 -0.19167,-0.58697 -0.0659,-0.34141 -0.0659,-0.8625 v -2.77915 q 0,-0.56302 -0.20964,-0.98827 -0.20963,-0.43125 -0.58098,-0.71276 -0.37136,-0.28151 -0.88047,-0.42526 -0.50312,-0.14375 -1.0901,-0.14375 -0.65286,0 -1.16197,0.16771 -0.50312,0.16172 -0.85052,0.44323 -0.35338,0.28151 -0.53906,0.65286 -0.17968,0.37135 -0.17968,0.78463 h 1.66509 q 0,-0.1737 0.0479,-0.31745 0.0539,-0.14375 0.16172,-0.24557 0.11979,-0.1138 0.31145,-0.1737 0.19167,-0.0659 0.45521,-0.0659 0.29948,0 0.52109,0.0779 0.2276,0.0719 0.37734,0.20964 0.14375,0.13177 0.21563,0.31744 0.0719,0.17969 0.0719,0.40729 v 0.38333 h -0.92838 q -0.71875,0 -1.27577,0.13177 -0.55104,0.12578 -0.92838,0.37136 -0.41927,0.26953 -0.62891,0.68879 -0.20963,0.41328 -0.20963,0.95234 0,0.41927 0.16771,0.77864 0.1677,0.35339 0.46718,0.61094 0.29948,0.25755 0.71276,0.4013 0.41927,0.14375 0.9164,0.14375 0.30547,0 0.56901,-0.0599 0.26354,-0.0539 0.48515,-0.15573 0.21562,-0.0958 0.39531,-0.2276 0.17969,-0.13177 0.31745,-0.28151 0.0299,0.1737 0.0719,0.32943 0.0419,0.15573 0.10182,0.27552 z m -1.58723,-1.16797 q -0.23359,0 -0.41328,-0.0539 -0.17369,-0.0599 -0.29348,-0.15573 -0.1198,-0.10182 -0.18568,-0.24557 -0.0599,-0.14974 -0.0599,-0.32344 0,-0.22161 0.0839,-0.40729 0.0839,-0.19166 0.25755,-0.32942 0.1737,-0.13177 0.44921,-0.20365 0.27552,-0.0779 0.66484,-0.0779 h 0.85052 v 1.11406 q -0.0719,0.12578 -0.19765,0.25156 -0.12578,0.11979 -0.29948,0.21562 -0.1737,0.0958 -0.38932,0.15573 -0.21563,0.0599 -0.46719,0.0599 z m 9.55334,-5.43252 q -0.65286,0 -1.2039,0.31745 -0.55104,0.31146 -0.94635,0.86249 l -0.012,-0.14375 -0.0659,-0.9164 h -1.5513 v 6.4807 h 1.6651 v -3.89321 q 0.1138,-0.27552 0.2875,-0.47916 0.17369,-0.20365 0.41926,-0.33542 0.20365,-0.1138 0.4612,-0.16771 0.26354,-0.0599 0.58698,-0.0599 0.31145,0 0.65286,0.0419 0.34739,0.0359 0.67682,0.11381 l 0.24557,-1.65911 q -0.19766,-0.0599 -0.52109,-0.10781 -0.31745,-0.0539 -0.69479,-0.0539 z m 5.57627,5.3906 q -0.4013,0 -0.66485,-0.16172 -0.25755,-0.16172 -0.40728,-0.43125 -0.15573,-0.26354 -0.21563,-0.61093 -0.0599,-0.35339 -0.0599,-0.73073 v -0.17968 q 0,-0.37136 0.0599,-0.71875 0.0659,-0.34739 0.22162,-0.61692 0.14973,-0.26953 0.40728,-0.43125 0.25756,-0.16172 0.65287,-0.16172 0.26953,0 0.49713,0.0958 0.2276,0.0898 0.38932,0.24558 0.16172,0.15572 0.24557,0.37135 0.0839,0.21562 0.0719,0.4552 h 1.56926 q 0.012,-0.57499 -0.19167,-1.03619 -0.20364,-0.46718 -0.56901,-0.79661 -0.37135,-0.32343 -0.88046,-0.50312 -0.50911,-0.17969 -1.10807,-0.17969 -0.74869,0 -1.3177,0.25755 -0.56302,0.25755 -0.94635,0.70078 -0.38333,0.44323 -0.57499,1.04218 -0.19167,0.59297 -0.19167,1.27578 v 0.17968 q 0,0.68281 0.19167,1.28177 0.19765,0.59296 0.58098,1.03619 0.37734,0.44323 0.94635,0.70078 0.56901,0.25156 1.32369,0.25156 0.55703,0 1.05416,-0.1737 0.50313,-0.17969 0.88047,-0.49114 0.37734,-0.31146 0.59296,-0.74271 0.22162,-0.43124 0.20964,-0.93437 h -1.56926 q 0.012,0.22761 -0.0839,0.41328 -0.0898,0.18568 -0.25755,0.31745 -0.16771,0.13177 -0.38932,0.20364 -0.22161,0.0719 -0.46718,0.0719 z m 6.15726,-4.37836 v -3.611703 h -1.6651 v 9.199953 h 1.6651 v -4.67784 q 0.0958,-0.12578 0.20963,-0.2276 0.11979,-0.10183 0.26354,-0.1737 0.15573,-0.0839 0.34739,-0.12578 0.19167,-0.0419 0.41328,-0.0419 0.2875,0 0.5151,0.0779 0.22761,0.0719 0.38933,0.22761 0.16171,0.15573 0.24557,0.40729 0.0898,0.25156 0.0898,0.59895 v 3.93514 h 1.6651 v -3.92316 q 0,-0.71276 -0.1737,-1.21588 -0.16771,-0.50911 -0.47318,-0.83254 -0.30546,-0.32344 -0.73072,-0.47318 -0.42526,-0.15573 -0.93437,-0.15573 -0.3474,0 -0.65885,0.10182 -0.31146,0.10183 -0.56901,0.2875 -0.16771,0.11979 -0.32344,0.28151 -0.14973,0.15573 -0.27551,0.34141 z m 15.17152,1.38957 q 0,0.37734 0.25157,0.63489 0.25755,0.25756 0.69478,0.25756 0.42526,0 0.68281,-0.25157 0.26354,-0.25156 0.26354,-0.64088 0,-0.38932 -0.26354,-0.64088 -0.25755,-0.25755 -0.68281,-0.25755 -0.43723,0 -0.69478,0.26354 -0.25157,0.25755 -0.25157,0.63489 z m 14.33899,1.00026 h 1.29974 q 0.71275,0 1.28775,-0.20365 0.575,-0.20364 0.98229,-0.569 0.4013,-0.35938 0.61692,-0.85651 0.22161,-0.49713 0.22161,-1.08411 0,-0.6289 -0.22161,-1.144 -0.21562,-0.515105 -0.61692,-0.886457 -0.40729,-0.365363 -0.98229,-0.569007 -0.575,-0.209635 -1.28775,-0.209635 h -2.9828 v 8.720789 h 1.68306 z m 0,-1.36562 v -2.79113 h 1.29974 q 0.35937,0 0.62291,0.1138 0.26354,0.1138 0.44323,0.31146 0.17369,0.19765 0.25755,0.46119 0.0898,0.26354 0.0898,0.56901 0,0.26354 -0.0898,0.50911 -0.0839,0.23958 -0.25755,0.42526 -0.17969,0.18568 -0.44323,0.29349 -0.26354,0.10781 -0.62291,0.10781 z m 5.97758,-4.635913 v 1.359628 h 1.94061 v 6.486685 h -1.94061 v 1.35364 h 5.48044 v -1.35364 h -1.85676 v -7.846313 z m 11.0627,9.199953 h 1.68905 v -0.10183 q -0.12578,-0.24557 -0.19166,-0.58697 -0.0659,-0.34141 -0.0659,-0.8625 v -2.77915 q 0,-0.56302 -0.20963,-0.98827 -0.20964,-0.43125 -0.58099,-0.71276 -0.37135,-0.28151 -0.88046,-0.42526 -0.50312,-0.14375 -1.0901,-0.14375 -0.65286,0 -1.16197,0.16771 -0.50312,0.16172 -0.85052,0.44323 -0.35338,0.28151 -0.53906,0.65286 -0.17968,0.37135 -0.17968,0.78463 h 1.66509 q 0,-0.1737 0.0479,-0.31745 0.0539,-0.14375 0.16171,-0.24557 0.1198,-0.1138 0.31146,-0.1737 0.19167,-0.0659 0.45521,-0.0659 0.29947,0 0.52109,0.0779 0.2276,0.0719 0.37734,0.20964 0.14375,0.13177 0.21562,0.31744 0.0719,0.17969 0.0719,0.40729 v 0.38333 h -0.92838 q -0.71875,0 -1.27578,0.13177 -0.55103,0.12578 -0.92838,0.37136 -0.41927,0.26953 -0.6289,0.68879 -0.20963,0.41328 -0.20963,0.95234 0,0.41927 0.1677,0.77864 0.16771,0.35339 0.46719,0.61094 0.29948,0.25755 0.71276,0.4013 0.41926,0.14375 0.9164,0.14375 0.30546,0 0.569,-0.0599 0.26354,-0.0539 0.48516,-0.15573 0.21562,-0.0958 0.39531,-0.2276 0.17968,-0.13177 0.31744,-0.28151 0.03,0.1737 0.0719,0.32943 0.0419,0.15573 0.10182,0.27552 z m -1.58723,-1.16797 q -0.23359,0 -0.41328,-0.0539 -0.1737,-0.0599 -0.29349,-0.15573 -0.11979,-0.10182 -0.18567,-0.24557 -0.0599,-0.14974 -0.0599,-0.32344 0,-0.22161 0.0839,-0.40729 0.0838,-0.19166 0.25755,-0.32942 0.17369,-0.13177 0.44921,-0.20365 0.27552,-0.0779 0.66484,-0.0779 h 0.85052 v 1.11406 q -0.0719,0.12578 -0.19766,0.25156 -0.12578,0.11979 -0.29947,0.21562 -0.1737,0.0958 -0.38933,0.15573 -0.21562,0.0599 -0.46718,0.0599 z m 5.92365,3.7854 q 0.50313,0 0.86849,-0.16771 0.37135,-0.1677 0.6289,-0.41328 0.25755,-0.24557 0.42526,-0.53307 0.1737,-0.28749 0.28151,-0.53307 l 3.28826,-7.451 h -1.83879 l -1.47942,3.80936 -0.24557,0.64687 -0.17969,-0.65885 -1.48541,-3.79738 h -1.82082 l 2.74321,6.20518 -0.38333,0.71275 q -0.0719,0.13177 -0.12578,0.20365 -0.0479,0.0719 -0.15573,0.21562 -0.10781,0.14375 -0.26354,0.26354 -0.14974,0.12578 -0.34739,0.12578 -0.0958,0 -0.25755,-0.012 -0.15573,-0.006 -0.25755,-0.006 l -0.20365,1.26979 q 0.21563,0.0599 0.38932,0.0898 0.17969,0.0299 0.41927,0.0299 z"
       id="text10"
       style="font-weight:bold;font-size:12.2666px;font-family:'Roboto Mono';-inkscape-font-specification:'Roboto Mono Bold';fill:#9800e5;stroke-width:0.0479165"
       aria-label="Download · Search · Play" />
  </g>
</svg>
